<svg xmlns="http://www.w3.org/2000/svg" xmlns:svg="http://www.w3.org/2000/svg" xmlns:xlink="http://www.w3.org/1999/xlink" version="1.0" height="1900pt" width="1581pt" viewBox="-6 -112.99999999999997 1589 1906" ><defs><style type="text/css">
            @font-face {
                font-family: 'lt_regular';
                src: url('https://app.creately.com/diagram/assets/fonts/lato/lt-regular-webfont.woff2') format('woff2'),
                    url('https://app.creately.com/diagram/assets/fonts/lato/lt-regular-webfont.woff') format('woff');
                font-weight: normal;
                font-style: normal;
            }
            @font-face {
                font-family: 'noto_regular';
                src: url('https://app.creately.com/diagram/assets/fonts/noto/noto-regular.woff') format('woff'),
                     url('https://app.creately.com/diagram/assets/fonts/noto/noto-regular.woff2') format('woff2');
                font-weight: normal;
                font-style: normal;
            }
        p {
            margin: 0;
        }
        </style></defs><defs><style>
            span{ display: inline-block; }
        </style></defs><g id="fpqxozTJvP0"><g transform="translate(260 100.00000000000028)"><path d="M 60,0 L 0,40 L 60,80 L 120,40 L 60,0 Z" fill="rgb(195,211,39)" stroke="#c3d327" stroke-width="2" stroke-linecap="round" stroke-linejoin="round" stroke-dasharray="0 0"/></g><g transform="translate(277.5, 129.00000000000028) rotate(0, 42.5, 11)" width="85" height="22"><text text-decoration="none" x="0" fill="#ffffff" font-size="12pt" font-family="lt_regular"  y="17">Registered?&#160;</text><text text-decoration="none" x="85" fill="#4b4b4b" font-size="10pt" font-family="noto_regular"  y="17"></text></g></g><g id="bVyzRSL18ho"><g transform="translate(560 110.00000000000023)"><rect x="0" y="0" width="120" height="60" fill="rgb(15,72,138)" stroke="#0f488a" stroke-width="2" stroke-linecap="round" stroke-linejoin="round" stroke-dasharray="0 0"/></g><g transform="translate(578, 118.00000000000023) rotate(0, 42, 22)" width="84" height="44"><text text-decoration="none" x="25.5" fill="rgb(255, 255, 255)" font-size="12pt" font-family="lt_regular"  y="17">User&#160;</text><text text-decoration="none" x="0" fill="rgb(255, 255, 255)" font-size="12pt" font-family="lt_regular"  y="39">Registration</text><text text-decoration="none" x="85" fill="#4b4b4b" font-size="10pt" font-family="noto_regular"  y="39"></text></g></g><g id="9PdHc14aKNZ"><g transform="translate(260.0000000000001 280)"><rect x="0" y="0" width="120" height="60" fill="rgb(15,72,138)" stroke="#0f488a" stroke-width="2" stroke-linecap="round" stroke-linejoin="round" stroke-dasharray="0 0"/></g><g transform="translate(301.0000000000001, 299) rotate(0, 19, 11)" width="38" height="22"><text text-decoration="none" x="0" fill="rgb(255, 255, 255)" font-size="12pt" font-family="lt_regular"  y="17">Login</text><text text-decoration="none" x="38" fill="#4b4b4b" font-size="10pt" font-family="noto_regular"  y="17"></text></g></g><g id="iONthVa5r71"><g transform="translate(539.9999999999998 280.00000000000006)"><path d="M 0,0 L 150,0 L 150,55 L 35,55 L 15,70 L 15,55 L 0,55 L 0,0 Z" fill="rgb(244,116,33)" stroke="#f47421" stroke-width="2" stroke-linecap="round" stroke-linejoin="round" stroke-dasharray="0 0"/></g><g transform="translate(558.4999999999998, 293.00000000000006) rotate(0, 56.5, 22)" width="113" height="44"><text text-decoration="none" x="2" fill="#ffffff" font-size="12pt" font-family="lt_regular"  y="17">Transition&#160;</text><text text-decoration="none" x="77" fill="#ffffff" font-size="12pt" font-family="lt_regular"  y="17">from&#160;</text><text text-decoration="none" x="0.5" fill="#ffffff" font-size="12pt" font-family="lt_regular"  y="39">HTTP&#160;</text><text text-decoration="none" x="44.5" fill="#ffffff" font-size="12pt" font-family="lt_regular"  y="39">to&#160;</text><text text-decoration="none" x="63.5" fill="#ffffff" font-size="12pt" font-family="lt_regular"  y="39">HTTPS</text><text text-decoration="none" x="112.5" fill="#4b4b4b" font-size="10pt" font-family="noto_regular"  y="39"></text></g></g><g id="lVZxtkoYJkJ"><g transform="translate(260 449.99999999999994)"><path d="M 60,0 L 0,40 L 60,80 L 120,40 L 60,0 Z" fill="rgb(195,211,39)" stroke="#c3d327" stroke-width="2" stroke-linecap="round" stroke-linejoin="round" stroke-dasharray="0 0"/></g><g transform="translate(300, 479) rotate(0, 20, 11)" width="40" height="22"><text text-decoration="none" x="0" fill="#ffffff" font-size="12pt" font-family="lt_regular"  y="17">Shop&#160;</text><text text-decoration="none" x="40" fill="#4b4b4b" font-size="10pt" font-family="noto_regular"  y="17"></text></g></g><g id="dg3AvPyryfO"><g transform="translate(550 440)"><path d="M 69.99999999999996,0 L 0,50.00000000000004 L 69.99999999999996,100.00000000000009 L 139.99999999999991,50.00000000000004 L 69.99999999999996,0 Z" fill="rgb(195,211,39)" stroke="#c3d327" stroke-width="2" stroke-linecap="round" stroke-linejoin="round" stroke-dasharray="0 0"/></g><g transform="translate(562, 468.00000000000006) rotate(0, 58, 22)" width="116" height="44"><text text-decoration="none" x="40" fill="#ffffff" font-size="12pt" font-family="lt_regular"  y="17">View</text><text text-decoration="none" x="76" fill="#ffffff" font-size="12pt" font-family="lt_regular"  y="17"></text><text text-decoration="none" x="26" fill="#ffffff" font-size="12pt" font-family="lt_regular"  y="39">Account&#160;</text><text text-decoration="none" x="32" fill="#ffffff" font-size="12pt" font-family="lt_regular"  y="61">Status?</text><text text-decoration="none" x="84" fill="#4b4b4b" font-size="10pt" font-family="noto_regular"  y="61"></text></g></g><g id="Nsxo5TftAYM"><g transform="translate(260.0000000000001 640)"><rect x="0" y="0" width="120" height="60" fill="rgb(15,72,138)" stroke="#0f488a" stroke-width="2" stroke-linecap="round" stroke-linejoin="round" stroke-dasharray="0 0"/></g><g transform="translate(275.5000000000001, 648) rotate(0, 44.5, 22)" width="89" height="44"><text text-decoration="none" x="0" fill="rgb(255, 255, 255)" font-size="12pt" font-family="lt_regular"  y="17">View/Search&#160;</text><text text-decoration="none" x="25.5" fill="rgb(255, 255, 255)" font-size="12pt" font-family="lt_regular"  y="39">Items</text><text text-decoration="none" x="63.5" fill="#4b4b4b" font-size="10pt" font-family="noto_regular"  y="39"></text></g></g><g id="g3hB9CWGk7X"><g transform="translate(560 640)"><rect x="0" y="0" width="120" height="60" fill="rgb(15,72,138)" stroke="#0f488a" stroke-width="2" stroke-linecap="round" stroke-linejoin="round" stroke-dasharray="0 0"/></g><g transform="translate(571, 648) rotate(0, 49, 22)" width="98" height="44"><text text-decoration="none" x="31" fill="rgb(255, 255, 255)" font-size="12pt" font-family="lt_regular"  y="17">View&#160;</text><text text-decoration="none" x="19" fill="rgb(255, 255, 255)" font-size="12pt" font-family="lt_regular"  y="39">Account&#160;</text><text text-decoration="none" x="26.5" fill="rgb(255, 255, 255)" font-size="12pt" font-family="lt_regular"  y="61">Status</text><text text-decoration="none" x="71.5" fill="#4b4b4b" font-size="10pt" font-family="noto_regular"  y="61"></text></g></g><g id="hbxlT31oM5z"><g transform="translate(850 640)"><rect x="0" y="0" width="120" height="60" fill="rgb(15,72,138)" stroke="#0f488a" stroke-width="2" stroke-linecap="round" stroke-linejoin="round" stroke-dasharray="0 0"/></g><g transform="translate(885.5, 659) rotate(0, 24.5, 11)" width="49" height="22"><text text-decoration="none" x="0" fill="rgb(255, 255, 255)" font-size="12pt" font-family="lt_regular"  y="17">Logout</text><text text-decoration="none" x="49" fill="#4b4b4b" font-size="10pt" font-family="noto_regular"  y="17"></text></g></g><g id="o6N38fgUKqC"><g transform="translate(260.0000000000001 830)"><rect x="0" y="0" width="120" height="60" fill="rgb(15,72,138)" stroke="#0f488a" stroke-width="2" stroke-linecap="round" stroke-linejoin="round" stroke-dasharray="0 0"/></g><g transform="translate(275.0000000000001, 838) rotate(0, 45, 22)" width="90" height="44"><text text-decoration="none" x="0" fill="rgb(255, 255, 255)" font-size="12pt" font-family="lt_regular"  y="17">Add&#160;</text><text text-decoration="none" x="33" fill="rgb(255, 255, 255)" font-size="12pt" font-family="lt_regular"  y="17">Items&#160;</text><text text-decoration="none" x="75" fill="rgb(255, 255, 255)" font-size="12pt" font-family="lt_regular"  y="17">to&#160;</text><text text-decoration="none" x="29.5" fill="rgb(255, 255, 255)" font-size="12pt" font-family="lt_regular"  y="39">Cart</text><text text-decoration="none" x="60.5" fill="#4b4b4b" font-size="10pt" font-family="noto_regular"  y="39"></text></g></g><g id="CV22bcIRswq"><g transform="translate(260.0000000000001 1030)"><rect x="0" y="0" width="120" height="60" fill="rgb(15,72,138)" stroke="#0f488a" stroke-width="2" stroke-linecap="round" stroke-linejoin="round" stroke-dasharray="0 0"/></g><g transform="translate(277.5000000000001, 1038) rotate(0, 42.5, 22)" width="85" height="44"><text text-decoration="none" x="16.5" fill="rgb(255, 255, 255)" font-size="12pt" font-family="lt_regular"  y="17">Display&#160;</text><text text-decoration="none" x="27" fill="rgb(255, 255, 255)" font-size="12pt" font-family="lt_regular"  y="39">Cart&#160;</text><text text-decoration="none" x="10" fill="rgb(255, 255, 255)" font-size="12pt" font-family="lt_regular"  y="61">Contents</text><text text-decoration="none" x="75" fill="#4b4b4b" font-size="10pt" font-family="noto_regular"  y="61"></text></g></g><g id="FwiPhfK99qz"><g transform="translate(260 1220)"><path d="M 60.000000000000014,0 L 0,44.99999999999996 L 60.000000000000014,89.99999999999991 L 120.00000000000003,44.99999999999996 L 60.000000000000014,0 Z" fill="rgb(195,211,39)" stroke="#c3d327" stroke-width="2" stroke-linecap="round" stroke-linejoin="round" stroke-dasharray="0 0"/></g><g transform="translate(282, 1243) rotate(0, 38, 22)" width="76" height="44"><text text-decoration="none" x="11.5" fill="#ffffff" font-size="12pt" font-family="lt_regular"  y="17">Change</text><text text-decoration="none" x="64.5" fill="#ffffff" font-size="12pt" font-family="lt_regular"  y="17"></text><text text-decoration="none" x="20.5" fill="#ffffff" font-size="12pt" font-family="lt_regular"  y="39">Cart&#160;</text><text text-decoration="none" x="19" fill="#ffffff" font-size="12pt" font-family="lt_regular"  y="61">Items</text><text text-decoration="none" x="57" fill="#4b4b4b" font-size="10pt" font-family="noto_regular"  y="61"></text></g></g><g id="mESfrrkuE5I"><g transform="translate(260 1440)"><rect x="0" y="0" width="120" height="60" fill="rgb(15,72,138)" stroke="#0f488a" stroke-width="2" stroke-linecap="round" stroke-linejoin="round" stroke-dasharray="0 0"/></g><g transform="translate(275.5, 1448) rotate(0, 44.5, 22)" width="89" height="44"><text text-decoration="none" x="0.5" fill="rgb(255, 255, 255)" font-size="12pt" font-family="lt_regular"  y="17">Change&#160;</text><text text-decoration="none" x="57.5" fill="rgb(255, 255, 255)" font-size="12pt" font-family="lt_regular"  y="17">Item&#160;</text><text text-decoration="none" x="7.5" fill="rgb(255, 255, 255)" font-size="12pt" font-family="lt_regular"  y="39">Quantities</text><text text-decoration="none" x="81.5" fill="#4b4b4b" font-size="10pt" font-family="noto_regular"  y="39"></text></g></g><g id="9GVaUpI4tac"><g transform="translate(260.0000000000001 1630)"><rect x="0" y="0" width="120" height="60" fill="rgb(15,72,138)" stroke="#0f488a" stroke-width="2" stroke-linecap="round" stroke-linejoin="round" stroke-dasharray="0 0"/></g><g transform="translate(286.5000000000001, 1649) rotate(0, 33.5, 11)" width="67" height="22"><text text-decoration="none" x="0" fill="rgb(255, 255, 255)" font-size="12pt" font-family="lt_regular"  y="17">Checkout</text><text text-decoration="none" x="68" fill="#4b4b4b" font-size="10pt" font-family="noto_regular"  y="17"></text></g></g><g id="O8g1tvRBYMw"><g transform="translate(1180 840.0000000000001)"><rect x="0" y="0" width="119.99999999999997" height="59.999999999999986" fill="rgb(15,72,138)" stroke="#0f488a" stroke-width="2" stroke-linecap="round" stroke-linejoin="round" stroke-dasharray="0 0"/></g><g transform="translate(1207, 848.0000000000001) rotate(0, 33, 22)" width="66" height="44"><text text-decoration="none" x="0" fill="rgb(255, 255, 255)" font-size="12pt" font-family="lt_regular"  y="17">Shopping&#160;</text><text text-decoration="none" x="17.5" fill="rgb(255, 255, 255)" font-size="12pt" font-family="lt_regular"  y="39">Cart</text><text text-decoration="none" x="48.5" fill="#4b4b4b" font-size="10pt" font-family="noto_regular"  y="39"></text></g></g><g id="iuUgJ7EDjpc"><g transform="translate(1180 1010)"><rect x="0" y="0" width="120" height="60" fill="rgb(15,72,138)" stroke="#0f488a" stroke-width="2" stroke-linecap="round" stroke-linejoin="round" stroke-dasharray="0 0"/></g><g transform="translate(1193.5, 1018) rotate(0, 46.5, 22)" width="93" height="44"><text text-decoration="none" x="15.5" fill="rgb(255, 255, 255)" font-size="12pt" font-family="lt_regular"  y="17">Payment&#160;</text><text text-decoration="none" x="23" fill="rgb(255, 255, 255)" font-size="12pt" font-family="lt_regular"  y="39">Info&#160;</text><text text-decoration="none" x="55" fill="rgb(255, 255, 255)" font-size="12pt" font-family="lt_regular"  y="39">to&#160;</text><text text-decoration="none" x="12" fill="rgb(255, 255, 255)" font-size="12pt" font-family="lt_regular"  y="61">Merchant</text><text text-decoration="none" x="81" fill="#4b4b4b" font-size="10pt" font-family="noto_regular"  y="61"></text></g></g><g id="Io6ajTyUOy7"><g transform="translate(1150 1170)"><path d="M 89.99999999999996,0 L 0,45.00000000000003 L 89.99999999999996,90.00000000000006 L 179.99999999999991,45.00000000000003 L 89.99999999999996,0 Z" fill="rgb(195,211,39)" stroke="#c3d327" stroke-width="2" stroke-linecap="round" stroke-linejoin="round" stroke-dasharray="0 0"/></g><g transform="translate(1202, 1204) rotate(0, 38, 11)" width="76" height="22"><text text-decoration="none" x="0" fill="#ffffff" font-size="12pt" font-family="lt_regular"  y="17">Approved?</text><text text-decoration="none" x="76" fill="#4b4b4b" font-size="10pt" font-family="noto_regular"  y="17"></text></g></g><g id="nAkyRYMmRjh"><g transform="translate(1480 1739.9999999999995)"><path d="M 19.999999999999996,39.99999999999999 L 19.999999999999996,39.99999999999999 L 19.999999999999996,39.99999999999999 A 19.999999999999996 19.999999999999996 0 0 1 0 20 L 0,19.999999999999996 L 0,20 A 19.999999999999996 19.999999999999996 0 0 1 19.999999999999996 0 L 79.99999999999997,0 L 79.99999999999997,0 L 79.99999999999997,0 A 19.999999999999996 19.999999999999996 0 0 1 99.99999999999997 19.999999999999996 L 99.99999999999997,19.999999999999996 L 99.99999999999997,19.999999999999996 A 19.999999999999996 19.999999999999996 0 0 1 79.99999999999997 39.99999999999999 L 19.999999999999996,39.99999999999999 Z" fill="rgb(192,35,44)" stroke="#c0232c" stroke-width="2" stroke-linecap="round" stroke-linejoin="round" stroke-dasharray="0 0"/></g><g transform="translate(1501.5, 1737.9999999999995) rotate(0, 28.5, 22)" width="57" height="44"><text text-decoration="none" x="15" fill="#ffffff" font-size="12pt" font-family="lt_regular"  y="17">End&#160;</text><text text-decoration="none" x="1" fill="#ffffff" font-size="12pt" font-family="lt_regular"  y="39">Process</text><text text-decoration="none" x="56" fill="#4b4b4b" font-size="10pt" font-family="noto_regular"  y="39"></text></g></g><g id="Hite7Z2PKib"><g transform="translate(1329.9999999999998 720)"><path d="M 0,0 L 150.00000000000202,0 L 150.00000000000202,74.99999999999989 L 35,74.99999999999989 L 15,89.99999999999989 L 15,74.99999999999989 L 0,74.99999999999989 L 0,0 Z" fill="rgb(244,116,33)" stroke="#f47421" stroke-width="2" stroke-linecap="round" stroke-linejoin="round" stroke-dasharray="0 0"/></g><g transform="translate(1346.000000000001, 743) rotate(0, 59, 22)" width="118" height="44"><text text-decoration="none" x="22.5" fill="#ffffff" font-size="12pt" font-family="lt_regular"  y="17">Zen&#160;</text><text text-decoration="none" x="53.5" fill="#ffffff" font-size="12pt" font-family="lt_regular"  y="17">Cart&#160;</text><text text-decoration="none" x="88.5" fill="#ffffff" font-size="12pt" font-family="lt_regular"  y="17">/&#160;</text><text text-decoration="none" x="20.5" fill="#ffffff" font-size="12pt" font-family="lt_regular"  y="39">Agora&#160;</text><text text-decoration="none" x="66.5" fill="#ffffff" font-size="12pt" font-family="lt_regular"  y="39">Cart</text><text text-decoration="none" x="97.5" fill="#4b4b4b" font-size="10pt" font-family="noto_regular"  y="39"></text></g></g><g id="PfWgAiNqZl1"><g transform="translate(1369.9999999999998 940)"><path d="M 0,0 L 150,0 L 150,85 L 35,85 L 15,100 L 15,85 L 0,85 L 0,0 Z" fill="rgb(244,116,33)" stroke="#f47421" stroke-width="2" stroke-linecap="round" stroke-linejoin="round" stroke-dasharray="0 0"/></g><g transform="translate(1384.9999999999998, 968) rotate(0, 60, 22)" width="120" height="44"><text text-decoration="none" x="0.5" fill="#ffffff" font-size="12pt" font-family="lt_regular"  y="17">AMEX,&#160;</text><text text-decoration="none" x="53.5" fill="#ffffff" font-size="12pt" font-family="lt_regular"  y="17">Discover,&#160;</text><text text-decoration="none" x="16" fill="#ffffff" font-size="12pt" font-family="lt_regular"  y="39">MasterCard,&#160;</text><text text-decoration="none" x="45" fill="#ffffff" font-size="12pt" font-family="lt_regular"  y="61">Visa</text><text text-decoration="none" x="75" fill="#4b4b4b" font-size="10pt" font-family="noto_regular"  y="61"></text></g></g><g id="8ye1JC1x8iZ"><g transform="translate(1330 1340)"><path d="M 0,0 L 150,0 L 150,54.9999999999998 L 35,54.9999999999998 L 15,69.9999999999998 L 15,54.9999999999998 L 0,54.9999999999998 L 0,0 Z" fill="rgb(244,116,33)" stroke="#f47421" stroke-width="2" stroke-linecap="round" stroke-linejoin="round" stroke-dasharray="0 0"/></g><g transform="translate(1353.5, 1364) rotate(0, 51.5, 11)" width="103" height="22"><text text-decoration="none" x="16.5" fill="#ffffff" font-size="12pt" font-family="lt_regular"  y="17">Microsoft&#160;</text><text text-decoration="none" x="35.5" fill="#ffffff" font-size="12pt" font-family="lt_regular"  y="39">POS</text><text text-decoration="none" x="67.5" fill="#4b4b4b" font-size="10pt" font-family="noto_regular"  y="39"></text></g></g><g id="kPooqmz5SSP"><g transform="translate(1329.9999999999998 1540)"><path d="M 0,0 L 150,0 L 150,85 L 35,85 L 15,100 L 15,85 L 0,85 L 0,0 Z" fill="rgb(244,116,33)" stroke="#f47421" stroke-width="2" stroke-linecap="round" stroke-linejoin="round" stroke-dasharray="0 0"/></g><g transform="translate(1355.4999999999998, 1557) rotate(0, 49.5, 33)" width="99" height="66"><text text-decoration="none" x="4" fill="#ffffff" font-size="12pt" font-family="lt_regular"  y="17">Cascade&#160;</text><text text-decoration="none" x="67" fill="#ffffff" font-size="12pt" font-family="lt_regular"  y="17">into&#160;</text><text text-decoration="none" x="9" fill="#ffffff" font-size="12pt" font-family="lt_regular"  y="39">subsequent&#160;</text><text text-decoration="none" x="22" fill="#ffffff" font-size="12pt" font-family="lt_regular"  y="61">Process&#160;</text><text text-decoration="none" x="28.5" fill="#ffffff" font-size="12pt" font-family="lt_regular"  y="83">Flows</text><text text-decoration="none" x="70.5" fill="#4b4b4b" font-size="10pt" font-family="noto_regular"  y="83"></text></g></g><g id="3r1o6fdTce9"><g transform="translate(1180 1730)"><rect x="0" y="0" width="119.99999999999997" height="59.999999999999986" fill="rgb(15,72,138)" stroke="#0f488a" stroke-width="2" stroke-linecap="round" stroke-linejoin="round" stroke-dasharray="0 0"/></g><g transform="translate(1194, 1738) rotate(0, 46, 22)" width="92" height="44"><text text-decoration="none" x="25" fill="rgb(255, 255, 255)" font-size="12pt" font-family="lt_regular"  y="17">Order&#160;</text><text text-decoration="none" x="0" fill="rgb(255, 255, 255)" font-size="12pt" font-family="lt_regular"  y="39">Confirmation</text><text text-decoration="none" x="93" fill="#4b4b4b" font-size="10pt" font-family="noto_regular"  y="39"></text></g></g><g id="YJ8NFGW9cVB"><g transform="translate(110 -109.99999999999997)"><rect x="0" y="0" width="600" height="61" fill="rgba(255,255,255,0.01)" stroke="rgba(255,255,255,0.01)"/></g><g transform="translate(120, -99.99999999999997) rotate(0, 0, 0)" width="499" height="41"><text text-decoration="none" x="0" fill="#4b4b4b" font-size="22pt" font-family="lt_regular"  y="32">E-commerce&#160;</text><text text-decoration="none" x="168" fill="#4b4b4b" font-size="22pt" font-family="lt_regular"  y="32">-&#160;</text><text text-decoration="none" x="186" fill="#4b4b4b" font-size="22pt" font-family="lt_regular"  y="32">Order&#160;</text><text text-decoration="none" x="269" fill="#4b4b4b" font-size="22pt" font-family="lt_regular"  y="32">Process&#160;</text><text text-decoration="none" x="0" fill="#4b4b4b" font-size="22pt" font-family="lt_regular"  y="73">Flowchart</text><text text-decoration="none" x="127" fill="#4b4b4b" font-size="10pt" font-family="noto_regular"  y="73"></text></g></g><g id="uKmjWkNt4Na"><g><path d="M -1,141 L 119.5,141 Q 120,141 130,141 Q 138.38196601125037,140.00000000000026 139.5,140.00000000000026 L 260,140" fill="none" stroke="#7E7E7E" stroke-width="2" stroke-linecap="round" stroke-linejoin="round"/><path d="M 260,140 L 251.30434782608697,134.25 L 251.30434782608697,145.75 Z" fill="rgb(126,126,126)" stroke="#7E7E7E" stroke-width="2" stroke-linecap="round" stroke-linejoin="round"/></g></g><g id="I50DJy3mafH"><mask id="26f8e" x="366" y="126" width="208" height="28" maskUnits="userSpaceOnUse"><rect x="366" y="126" width="208" height="28" fill="white" /><rect x="458" y="128.00000000000003" width="24" height="24" fill="black" /></mask><g mask="url(#26f8e)"><path d="M 380,140 L 460,140.00000000000026 Q 460.0000000000003,140.00000000000026 470,140 Q 479.9999999999998,140.0000000000002 480,140.0000000000002 L 560,140" fill="none" stroke="#7E7E7E" stroke-width="2" stroke-linecap="round" stroke-linejoin="round"/><path d="M 560,140 L 551.304347826087,134.25 L 551.304347826087,145.75 Z" fill="rgb(126,126,126)" stroke="#7E7E7E" stroke-width="2" stroke-linecap="round" stroke-linejoin="round"/></g><g transform="translate(461, 131.00000000000003)" width="18" height="18"><text text-decoration="none" x="1" fill="#4b4b4b" font-size="10pt" font-family="noto_regular"  y="15">No</text><text text-decoration="none" x="17" fill="#4b4b4b" font-size="10pt" font-family="noto_regular"  y="15"></text></g></g><g id="PqSLAORDF7R"><mask id="060be" x="306" y="166" width="28" height="128" maskUnits="userSpaceOnUse"><rect x="306" y="166" width="28" height="128" fill="white" /><rect x="306.5" y="218.0000000000001" width="27" height="24" fill="black" /></mask><g mask="url(#060be)"><path d="M 320,180 L 320,220.00000000000014 Q 320,220.00000000000028 320,230 Q 320.0000000000001,239.99999999999997 320.0000000000001,240.00000000000014 L 320,280" fill="none" stroke="#7E7E7E" stroke-width="2" stroke-linecap="round" stroke-linejoin="round"/><path d="M 320,280 L 325.75,271.30434782608694 L 314.25,271.30434782608694 Z" fill="rgb(126,126,126)" stroke="#7E7E7E" stroke-width="2" stroke-linecap="round" stroke-linejoin="round"/></g><g transform="translate(309.5, 221.0000000000001)" width="21" height="18"><text text-decoration="none" x="0" fill="#4b4b4b" font-size="10pt" font-family="noto_regular"  y="15">Yes</text><text text-decoration="none" x="22" fill="#4b4b4b" font-size="10pt" font-family="noto_regular"  y="15"></text></g></g><g id="4CPbWKKEzba"><g><path d="M 620,170 L 620,233 L 345,233" fill="none" stroke="#7E7E7E" stroke-width="2" stroke-linecap="round" stroke-linejoin="round"/><path d="M 345,233 L 353.69565217391306,238.75 L 353.69565217391306,227.25 Z" fill="rgb(126,126,126)" stroke="#7E7E7E" stroke-width="2" stroke-linecap="round" stroke-linejoin="round"/></g></g><g id="kYb9ltRyjoO"><g><path d="M 320,340 L 320.0000000000001,385 Q 320.0000000000001,385.0000000000001 320,395 Q 320,405 320,405 L 320,450" fill="none" stroke="#7E7E7E" stroke-width="2" stroke-linecap="round" stroke-linejoin="round"/><path d="M 320,450 L 325.75,441.30434782608694 L 314.25,441.30434782608694 Z" fill="rgb(126,126,126)" stroke="#7E7E7E" stroke-width="2" stroke-linecap="round" stroke-linejoin="round"/></g></g><g id="fW8jLfIrjVX"><mask id="005b0" x="306" y="516" width="28" height="138" maskUnits="userSpaceOnUse"><rect x="306" y="516" width="28" height="138" fill="white" /><rect x="306.50000000000006" y="573" width="27" height="24" fill="black" /></mask><g mask="url(#005b0)"><path d="M 320,530 L 320,575 Q 320,575 320,585 Q 320.0000000000001,594.9999999999999 320.0000000000001,595 L 320,640" fill="none" stroke="#7E7E7E" stroke-width="2" stroke-linecap="round" stroke-linejoin="round"/><path d="M 320,640 L 325.75,631.304347826087 L 314.25,631.304347826087 Z" fill="rgb(126,126,126)" stroke="#7E7E7E" stroke-width="2" stroke-linecap="round" stroke-linejoin="round"/></g><g transform="translate(309.50000000000006, 576)" width="21" height="18"><text text-decoration="none" x="0" fill="#4b4b4b" font-size="10pt" font-family="noto_regular"  y="15">Yes</text><text text-decoration="none" x="22" fill="#4b4b4b" font-size="10pt" font-family="noto_regular"  y="15"></text></g></g><g id="YZFLIc3BghA"><mask id="f694f" x="366" y="476" width="198" height="28" maskUnits="userSpaceOnUse"><rect x="366" y="476" width="198" height="28" fill="white" /><rect x="453" y="478" width="24" height="24" fill="black" /></mask><g mask="url(#f694f)"><path d="M 380,490 L 465,490 Q 474.99999999999994,490.00000000000006 475,490.00000000000006 L 550,490" fill="none" stroke="#7E7E7E" stroke-width="2" stroke-linecap="round" stroke-linejoin="round"/><path d="M 550,490 L 541.304347826087,484.25 L 541.304347826087,495.75 Z" fill="rgb(126,126,126)" stroke="#7E7E7E" stroke-width="2" stroke-linecap="round" stroke-linejoin="round"/></g><g transform="translate(456, 481)" width="18" height="18"><text text-decoration="none" x="1" fill="#4b4b4b" font-size="10pt" font-family="noto_regular"  y="15">No</text><text text-decoration="none" x="17" fill="#4b4b4b" font-size="10pt" font-family="noto_regular"  y="15"></text></g></g><g id="7ADu1sln9Lf"><mask id="f2468" x="606" y="526" width="28" height="128" maskUnits="userSpaceOnUse"><rect x="606" y="526" width="28" height="128" fill="white" /><rect x="606.5" y="578" width="27" height="24" fill="black" /></mask><g mask="url(#f2468)"><path d="M 620,540 L 620,640" fill="none" stroke="#7E7E7E" stroke-width="2" stroke-linecap="round" stroke-linejoin="round"/><path d="M 620,640 L 625.75,631.304347826087 L 614.25,631.304347826087 Z" fill="rgb(126,126,126)" stroke="#7E7E7E" stroke-width="2" stroke-linecap="round" stroke-linejoin="round"/></g><g transform="translate(609.5, 581)" width="21" height="18"><text text-decoration="none" x="0" fill="#4b4b4b" font-size="10pt" font-family="noto_regular"  y="15">Yes</text><text text-decoration="none" x="22" fill="#4b4b4b" font-size="10pt" font-family="noto_regular"  y="15"></text></g></g><g id="p2CTwYmJBEu"><g><path d="M 690,490 L 910,490.00000000000006 L 910,640" fill="none" stroke="#7E7E7E" stroke-width="2" stroke-linecap="round" stroke-linejoin="round"/><path d="M 910,640 L 915.75,631.304347826087 L 904.25,631.304347826087 Z" fill="rgb(126,126,126)" stroke="#7E7E7E" stroke-width="2" stroke-linecap="round" stroke-linejoin="round"/></g></g><g id="OIJJQDka7Ta"><g><path d="M 320,700 L 320,830" fill="none" stroke="#7E7E7E" stroke-width="2" stroke-linecap="round" stroke-linejoin="round"/><path d="M 320,830 L 325.75,821.304347826087 L 314.25,821.304347826087 Z" fill="rgb(126,126,126)" stroke="#7E7E7E" stroke-width="2" stroke-linecap="round" stroke-linejoin="round"/></g></g><g id="2l9bvMtiPVQ"><g><path d="M 320,890 L 320,1030" fill="none" stroke="#7E7E7E" stroke-width="2" stroke-linecap="round" stroke-linejoin="round"/><path d="M 320,1030 L 325.75,1021.304347826087 L 314.25,1021.304347826087 Z" fill="rgb(126,126,126)" stroke="#7E7E7E" stroke-width="2" stroke-linecap="round" stroke-linejoin="round"/></g></g><g id="H8NBDtr0vAq"><g><path d="M 320,1090 L 320.0000000000001,1145 Q 320.0000000000001,1145 320,1155 Q 320,1165 320,1165 L 320,1220" fill="none" stroke="#7E7E7E" stroke-width="2" stroke-linecap="round" stroke-linejoin="round"/><path d="M 320,1220 L 325.75,1211.304347826087 L 314.25,1211.304347826087 Z" fill="rgb(126,126,126)" stroke="#7E7E7E" stroke-width="2" stroke-linecap="round" stroke-linejoin="round"/></g></g><g id="l9l8CJxIZ69"><mask id="082a0" x="306" y="1296" width="28" height="158" maskUnits="userSpaceOnUse"><rect x="306" y="1296" width="28" height="158" fill="white" /><rect x="306.5" y="1363" width="27" height="24" fill="black" /></mask><g mask="url(#082a0)"><path d="M 320,1310 L 320,1440" fill="none" stroke="#7E7E7E" stroke-width="2" stroke-linecap="round" stroke-linejoin="round"/><path d="M 320,1440 L 325.75,1431.304347826087 L 314.25,1431.304347826087 Z" fill="rgb(126,126,126)" stroke="#7E7E7E" stroke-width="2" stroke-linecap="round" stroke-linejoin="round"/></g><g transform="translate(309.5, 1366)" width="21" height="18"><text text-decoration="none" x="0" fill="#4b4b4b" font-size="10pt" font-family="noto_regular"  y="15">Yes</text><text text-decoration="none" x="22" fill="#4b4b4b" font-size="10pt" font-family="noto_regular"  y="15"></text></g></g><g id="Zw4ENBOToRb"><mask id="39831" x="366" y="1251" width="48" height="423" maskUnits="userSpaceOnUse"><rect x="366" y="1251" width="48" height="423" fill="white" /><rect x="388" y="1450.5000000000002" width="24" height="24" fill="black" /></mask><g mask="url(#39831)"><path d="M 380,1265 L 400,1265 L 400,1438 L 400,1610 L 400,1610 L 400.0000000000001,1610 L 400,1635 L 400.0000000000001,1660 L 380,1660" fill="none" stroke="#7E7E7E" stroke-width="2" stroke-linecap="round" stroke-linejoin="round"/><path d="M 380,1660 L 388.69565217391306,1665.75 L 388.69565217391306,1654.25 Z" fill="rgb(126,126,126)" stroke="#7E7E7E" stroke-width="2" stroke-linecap="round" stroke-linejoin="round"/></g><g transform="translate(391, 1453.5000000000002)" width="18" height="18"><text text-decoration="none" x="1" fill="#4b4b4b" font-size="10pt" font-family="noto_regular"  y="15">No</text><text text-decoration="none" x="17" fill="#4b4b4b" font-size="10pt" font-family="noto_regular"  y="15"></text></g></g><g id="SU87EpYmHD5"><g><path d="M 320,1500 L 320,1555 Q 320,1555 320,1565 Q 320.0000000000001,1575 320.0000000000001,1575 L 320,1630" fill="none" stroke="#7E7E7E" stroke-width="2" stroke-linecap="round" stroke-linejoin="round"/><path d="M 320,1630 L 325.75,1621.304347826087 L 314.25,1621.304347826087 Z" fill="rgb(126,126,126)" stroke="#7E7E7E" stroke-width="2" stroke-linecap="round" stroke-linejoin="round"/></g></g><g id="hqlrsd8CG3Y"><g><path d="M 317,1605 L 317,1605" fill="none" stroke="#7E7E7E" stroke-width="2" stroke-linecap="round" stroke-linejoin="round"/></g></g><g id="hM3o6vb9Lly"><g><path d="M 320,1690 L 320,1742.8997144379505 L 619,1743 L 917,1742.8997144379505 L 917,1306 L 917,870 L 1180,870" fill="none" stroke="#7E7E7E" stroke-width="2" stroke-linecap="round" stroke-linejoin="round"/><path d="M 1180,870 L 1171.304347826087,864.25 L 1171.304347826087,875.75 Z" fill="rgb(126,126,126)" stroke="#7E7E7E" stroke-width="2" stroke-linecap="round" stroke-linejoin="round"/></g></g><g id="9GY4OKy4Ywy"><g><path d="M 1240,900 L 1240,1010" fill="none" stroke="#7E7E7E" stroke-width="2" stroke-linecap="round" stroke-linejoin="round"/><path d="M 1240,1010 L 1245.75,1001.304347826087 L 1234.25,1001.304347826087 Z" fill="rgb(126,126,126)" stroke="#7E7E7E" stroke-width="2" stroke-linecap="round" stroke-linejoin="round"/></g></g><g id="JWkdhTn45GS"><g><path d="M 1240,1070 L 1240,1170" fill="none" stroke="#7E7E7E" stroke-width="2" stroke-linecap="round" stroke-linejoin="round"/><path d="M 1240,1170 L 1245.75,1161.304347826087 L 1234.25,1161.304347826087 Z" fill="rgb(126,126,126)" stroke="#7E7E7E" stroke-width="2" stroke-linecap="round" stroke-linejoin="round"/></g></g><g id="XKxvfhyEq66"><mask id="2e4d3" x="1226" y="1246" width="28" height="128" maskUnits="userSpaceOnUse"><rect x="1226" y="1246" width="28" height="128" fill="white" /><rect x="1226.5" y="1298" width="27" height="24" fill="black" /></mask><g mask="url(#2e4d3)"><path d="M 1240,1260 L 1240,1360" fill="none" stroke="#7E7E7E" stroke-width="2" stroke-linecap="round" stroke-linejoin="round"/><path d="M 1240,1360 L 1245.75,1351.304347826087 L 1234.25,1351.304347826087 Z" fill="rgb(126,126,126)" stroke="#7E7E7E" stroke-width="2" stroke-linecap="round" stroke-linejoin="round"/></g><g transform="translate(1229.5, 1301)" width="21" height="18"><text text-decoration="none" x="0" fill="#4b4b4b" font-size="10pt" font-family="noto_regular"  y="15">Yes</text><text text-decoration="none" x="22" fill="#4b4b4b" font-size="10pt" font-family="noto_regular"  y="15"></text></g></g><g id="LTzMVDhVxBI"><mask id="02832" x="1286" y="856" width="78" height="373" maskUnits="userSpaceOnUse"><rect x="1286" y="856" width="78" height="373" fill="white" /><rect x="1308" y="1045.5" width="24" height="24" fill="black" />undefined</mask><g mask="url(#02832)"><path d="M 1330,1215 L 1350,1215 L 1350,1183 L 1350,1150 L 1335,1150 L 1320,1150 L 1320,1010 L 1320,870.0000000000001 L 1300,870" fill="none" stroke="#7E7E7E" stroke-width="2" stroke-linecap="round" stroke-linejoin="round"/><path d="M 1300,870 L 1308.695652173913,875.75 L 1308.695652173913,864.25 Z" fill="rgb(126,126,126)" stroke="#7E7E7E" stroke-width="2" stroke-linecap="round" stroke-linejoin="round"/></g><g transform="translate(1311, 1048.5)" width="18" height="18"><text text-decoration="none" x="1" fill="#4b4b4b" font-size="10pt" font-family="noto_regular"  y="15">No</text><text text-decoration="none" x="17" fill="#4b4b4b" font-size="10pt" font-family="noto_regular"  y="15"></text></g>undefined</g><g id="SlHyaINQr01"><g><path d="M 1240,1440 L 1240,1550" fill="none" stroke="#7E7E7E" stroke-width="2" stroke-linecap="round" stroke-linejoin="round"/><path d="M 1240,1550 L 1245.75,1541.304347826087 L 1234.25,1541.304347826087 Z" fill="rgb(126,126,126)" stroke="#7E7E7E" stroke-width="2" stroke-linecap="round" stroke-linejoin="round"/></g></g><g id="chsgxwlYvtN"><g><path d="M 1240,1630 L 1240,1730" fill="none" stroke="#7E7E7E" stroke-width="2" stroke-linecap="round" stroke-linejoin="round"/><path d="M 1240,1730 L 1245.75,1721.304347826087 L 1234.25,1721.304347826087 Z" fill="rgb(126,126,126)" stroke="#7E7E7E" stroke-width="2" stroke-linecap="round" stroke-linejoin="round"/></g></g><g id="2fakbloXJra"><g><path d="M 1300,1760 L 1380,1760 Q 1380,1760 1390,1760 Q 1399.9999999999995,1759.9999999999995 1400,1759.9999999999995 L 1480,1760" fill="none" stroke="#7E7E7E" stroke-width="2" stroke-linecap="round" stroke-linejoin="round"/><path d="M 1480,1760 L 1471.304347826087,1754.25 L 1471.304347826087,1765.75 Z" fill="rgb(126,126,126)" stroke="#7E7E7E" stroke-width="2" stroke-linecap="round" stroke-linejoin="round"/></g></g><g id="L8U3R8jnj4V"><mask id="426ee" x="324" y="382" width="310" height="352" maskUnits="userSpaceOnUse"><rect x="324" y="382" width="310" height="352" fill="white" />undefined</mask><g mask="url(#426ee)"><path d="M 620,700 L 620,720 L 580,720 L 540,720 L 540,558 L 540,395.72698208750523 L 338,396" fill="none" stroke="#7E7E7E" stroke-width="2" stroke-linecap="round" stroke-linejoin="round"/><path d="M 338,396 L 346.69565217391306,401.75 L 346.69565217391306,390.25 Z" fill="rgb(126,126,126)" stroke="#7E7E7E" stroke-width="2" stroke-linecap="round" stroke-linejoin="round"/></g>undefined</g><g id="yJpvjyhH6cV"><g transform="translate(90 1660) rotate(-90)"><path d="M 0,5 L 1419.9999999999982,5" fill="rgb(75,75,75)" stroke="#4b4b4b" stroke-width="2" stroke-linecap="round" stroke-linejoin="round"/><rect x="0" y="0" width="1419.9999999999982" height="10" fill="rgba(255,255,255,0.01)" stroke="rgba(255,255,255,0.01)" stroke-width="2" stroke-linecap="round" stroke-linejoin="round"/></g><g transform="translate(105.00000000000004, 950.0000000000009) rotate(-90, 0, 0)" width="0" height="36"><text text-decoration="none" x="0" fill="#4b4b4b" font-size="10pt" font-family="noto_regular"  y="12"></text><text text-decoration="none" x="0" fill="#4b4b4b" font-size="10pt" font-family="noto_regular"  y="31"></text></g></g><g id="pYcBc8vtVSD"><g transform="translate(100 1660)"><path d="M 0,5 L 155.0431098567571,5" fill="rgb(75,75,75)" stroke="#4b4b4b" stroke-width="2" stroke-linecap="round" stroke-linejoin="round"/><rect x="0" y="0" width="155.0431098567571" height="10" fill="rgba(255,255,255,0.01)" stroke="rgba(255,255,255,0.01)" stroke-width="2" stroke-linecap="round" stroke-linejoin="round"/></g><g transform="translate(177.52155492837855, 1675) rotate(0, 0, 0)" width="0" height="36"><text text-decoration="none" x="0" fill="#4b4b4b" font-size="10pt" font-family="noto_regular"  y="12"></text><text text-decoration="none" x="0" fill="#4b4b4b" font-size="10pt" font-family="noto_regular"  y="31"></text></g></g><g id="bbHd7pQSImh"><g><path d="M 260,1470 L 198.86653171542162,1470 Q 198.73306343084323,1470 189,1470 Q 179.1835304376143,1469.7518317400982 178.86661397529755,1469.7531171939845 L 118,1470" fill="none" stroke="#7E7E7E" stroke-width="2" stroke-linecap="round" stroke-linejoin="round"/><path d="M 118,1470 L 126.69565217391305,1475.75 L 126.69565217391305,1464.25 Z" fill="rgb(126,126,126)" stroke="#7E7E7E" stroke-width="2" stroke-linecap="round" stroke-linejoin="round"/></g></g><g id="KlnhhaDX85K"><g><path d="M 260,1060 L 198.00434337478086,1060 Q 198,1060 188,1060 Q 178.43792003861472,1060.3758029845378 178.00452450119954,1060.3731944521533 L 116,1060" fill="none" stroke="#7E7E7E" stroke-width="2" stroke-linecap="round" stroke-linejoin="round"/><path d="M 116,1060 L 124.69565217391305,1065.75 L 124.69565217391305,1054.25 Z" fill="rgb(126,126,126)" stroke="#7E7E7E" stroke-width="2" stroke-linecap="round" stroke-linejoin="round"/></g></g><g id="JKeGGTk2328"><g><path d="M 260,860 L 195.84887252317884,860 Q 195.69774504635768,860 186,860 Q 176.23630347334446,859.68980133503 175.848989118514,859.6916716854283 L 112,860" fill="none" stroke="#7E7E7E" stroke-width="2" stroke-linecap="round" stroke-linejoin="round"/><path d="M 112,860 L 120.69565217391305,865.75 L 120.69565217391305,854.25 Z" fill="rgb(126,126,126)" stroke="#7E7E7E" stroke-width="2" stroke-linecap="round" stroke-linejoin="round"/></g></g><g id="w3eQp96cfya"><g><path d="M 260,670 L 198.43543754510128,670 Q 198,670 188,670 Q 179.10631040419722,670.5740514910188 178.4356727235001,670.5786509772595 L 117,671" fill="none" stroke="#7E7E7E" stroke-width="2" stroke-linecap="round" stroke-linejoin="round"/><path d="M 117,671 L 125.69565217391305,676.75 L 125.69565217391305,665.25 Z" fill="rgb(126,126,126)" stroke="#7E7E7E" stroke-width="2" stroke-linecap="round" stroke-linejoin="round"/></g></g><g id="mBKvSRcclVa"><g><path d="M 95,240 L 95,237 L 301,237" fill="none" stroke="#7E7E7E" stroke-width="2" stroke-linecap="round" stroke-linejoin="round"/><path d="M 301,237 L 292.30434782608694,231.25 L 292.30434782608694,242.75 Z" fill="rgb(126,126,126)" stroke="#7E7E7E" stroke-width="2" stroke-linecap="round" stroke-linejoin="round"/></g></g><g id="g4eUs7bgzJI"><g transform="translate(60 90)"><rect x="0" y="0" width="250" height="100" fill="rgba(255,255,255,0.01)" stroke="rgba(255,255,255,0.01)"/></g><g transform="translate(70, 100) rotate(0, 0, 0)" width="35" height="22"><text text-decoration="none" x="0" fill="rgb(75, 75, 75)" font-size="12pt" font-family="lt_regular"  y="17">Start</text><text text-decoration="none" x="35" fill="#4b4b4b" font-size="10pt" font-family="noto_regular"  y="17"></text></g></g><g id="xaDWrQRsLdv"><g transform="translate(1180 1359.9999999999998)"><path d="M 0,0 L 119.99999999999969,0 L 119.99999999999969,90.00000000000014 L 0,90.00000000000014 L 0,0 Z M 99.99999999999969,0 L 99.99999999999969,90.00000000000014 M 20,0 L 20,90.00000000000014" fill="rgb(120,199,168)" stroke="#19694a" stroke-width="2" stroke-linecap="round" stroke-linejoin="round" stroke-dasharray="0 0"/></g><g transform="translate(1201.5, 1383) rotate(0, 38.5, 22)" width="77" height="44"><text text-decoration="none" x="22.5" fill="#ffffff" font-size="12pt" font-family="lt_regular"  y="17">POS&#160;</text><text text-decoration="none" x="0" fill="#ffffff" font-size="12pt" font-family="lt_regular"  y="39">Integration</text><text text-decoration="none" x="77" fill="#4b4b4b" font-size="10pt" font-family="noto_regular"  y="39"></text></g></g><g id="eoRLKi4tqta"><g transform="translate(1180.0000000000002 1550)"><path d="M 0,0 L 120,0 L 120,80 L 0,80 L 0,0 Z M 100,0 L 100,80 M 20,0 L 20,80" fill="rgb(120,199,168)" stroke="#19694a" stroke-width="2" stroke-linecap="round" stroke-linejoin="round" stroke-dasharray="0 0"/></g><g transform="translate(1202.5000000000002, 1568) rotate(0, 37.5, 22)" width="75" height="44"><text text-decoration="none" x="7" fill="#ffffff" font-size="12pt" font-family="lt_regular"  y="17">Shipping&#160;</text><text text-decoration="none" x="32" fill="#ffffff" font-size="12pt" font-family="lt_regular"  y="39">&#x26;&#160;</text><text text-decoration="none" x="6" fill="#ffffff" font-size="12pt" font-family="lt_regular"  y="61">Handling</text><text text-decoration="none" x="69" fill="#4b4b4b" font-size="10pt" font-family="noto_regular"  y="61"></text></g></g></svg>